# Blender v2.80 (sub 35) OBJ File: ''
# www.blender.org
mtllib rushEnemy.mtl
o Plane
v -1.000000 0.000000 1.000000
v 1.000000 0.000000 1.000000
v 0.000000 0.000000 -1.000000
v 1.000000 0.000000 1.000000
v 0.000000 0.700000 1.000000
vt 0.000000 0.000000
vt 0.000000 0.000000
vt 0.000000 0.000000
vt 0.000000 0.000000
vt 0.000000 0.000000
vn 0.0000 -1.0000 0.0000
vn 0.0000 0.0000 1.0000
vn -0.5512 0.7875 -0.2756
vn 0.5512 0.7875 -0.2756
usemtl None
s off
f 3/1/1 2/2/1 1/3/1
f 5/4/2 1/3/2 4/5/2
f 1/3/3 5/4/3 3/1/3
f 5/4/4 4/5/4 3/1/4
